# xmcd
#
# Track frame offsets:
#	150
#	18778
#	37293
#	59644
#	87402
#	108957
#	126462
#	151522
#
# Disc length: 2218 seconds
#
# Revision: 0
# Processed by: cddbd v1.5.2PL0 Copyright (c) Steve Scherf et al.
# Submitted via: audiograbber 1.83.01
#
DISCID=6408a808
DTITLE=John Snake Hillary and Blues Connexion - John Snake Hillary and Blues Connex
DTITLE=ion
DYEAR=2013
DGENRE=Blues
TTITLE0=I Never Thought
TTITLE1=What She Say
TTITLE2=I Like 'em Like That
TTITLE3=Money's Getting Cheaper
TTITLE4=She's Drunk Again
TTITLE5=Stop (live)
TTITLE6=I Thought I Heard The Train (live)
TTITLE7=Honey Hush
EXTD=
EXTT0=
EXTT1=
EXTT2=
EXTT3=
EXTT4=
EXTT5=
EXTT6=
EXTT7=
PLAYORDER=
